<svg width="41" height="42" viewBox="0 0 41 42" fill="none" xmlns="http://www.w3.org/2000/svg">
<path d="M24.7386 29.2394L30.4912 23.2951H9.01343V18.7049H30.4912L24.7386 12.7607L27.8925 9.5246L38.9979 21L27.8925 32.4754L24.7386 29.2394ZM35.6663 0.344269C36.8444 0.344269 37.9743 0.827874 38.8073 1.6887C39.6404 2.54952 40.1084 3.71705 40.1084 4.93443V15.6525L35.6663 11.0623V4.93443H4.57129V37.0656H35.6663V30.9377L40.1084 26.3475V37.0656C40.1084 38.283 39.6404 39.4505 38.8073 40.3113C37.9743 41.1721 36.8444 41.6557 35.6663 41.6557H4.57129C2.1059 41.6557 0.12915 39.5902 0.12915 37.0656V4.93443C0.12915 2.38689 2.1059 0.344269 4.57129 0.344269H35.6663Z" fill="black"/>
</svg>
