<svg width="40" height="40" viewBox="0 0 40 40" fill="none" xmlns="http://www.w3.org/2000/svg">
<path d="M37.581 39.4922L32.381 34.3582H3.6V32.4777L7.40952 28.7165V17.433C7.40952 15.2891 7.9619 13.1641 8.99048 11.2647L0 2.38834L2.4381 0L40 37.1039L37.581 39.4922ZM34.0762 26.4598V17.433C34.0762 11.6032 30.2095 6.46921 24.5524 4.81429C24.5524 4.62623 24.5524 4.45698 24.5524 4.26892C24.5524 3.2714 24.151 2.31473 23.4366 1.60938C22.7222 0.904022 21.7532 0.507757 20.7429 0.507757C19.7325 0.507757 18.7635 0.904022 18.0491 1.60938C17.3347 2.31473 16.9333 3.2714 16.9333 4.26892C16.9333 4.45698 16.9333 4.62623 16.9333 4.81429C15.7714 5.1528 14.6476 5.66055 13.619 6.31876L34.0762 26.4598ZM20.7429 40C21.7532 40 22.7222 39.6037 23.4366 38.8984C24.151 38.193 24.5524 37.2364 24.5524 36.2388H16.9333C16.9333 37.2364 17.3347 38.193 18.0491 38.8984C18.7635 39.6037 19.7325 40 20.7429 40Z" fill="black"/>
</svg>
