<svg width="40" height="42" viewBox="0 0 40 42" fill="none" xmlns="http://www.w3.org/2000/svg">
<path d="M36.3448 33.4426V35.4098H3.63448V33.4426L7.26896 29.5082V17.7049C7.26896 11.6066 10.9579 6.23607 16.3551 4.50492C16.3551 4.3082 16.3551 4.13115 16.3551 3.93443C16.3551 2.89095 16.7381 1.89021 17.4197 1.15237C18.1013 0.414519 19.0257 0 19.9896 0C20.9536 0 21.878 0.414519 22.5596 1.15237C23.2412 1.89021 23.6241 2.89095 23.6241 3.93443C23.6241 4.13115 23.6241 4.3082 23.6241 4.50492C29.0213 6.23607 32.7103 11.6066 32.7103 17.7049V29.5082L36.3448 33.4426ZM23.6241 37.377C23.6241 38.4205 23.2412 39.4213 22.5596 40.1591C21.878 40.897 20.9536 41.3115 19.9896 41.3115C19.0257 41.3115 18.1013 40.897 17.4197 40.1591C16.7381 39.4213 16.3551 38.4205 16.3551 37.377M34.0732 2.34098L31.4927 5.13443C34.6002 8.45902 36.3448 12.9836 36.3448 17.7049H39.9793C39.9793 11.941 37.8713 6.39344 34.0732 2.34098ZM0 17.7049H3.63448C3.63448 12.9836 5.37903 8.45902 8.48651 5.13443L5.90603 2.34098C2.108 6.39344 0 11.941 0 17.7049Z" fill="black"/>
</svg>
